<svg width="68" height="73" viewBox="0 0 68 73" fill="none" xmlns="http://www.w3.org/2000/svg">
<g filter="url(#filter0_i_5202_224)">
<path d="M48.4728 15.0416C48.5658 14.5157 48.6142 13.9746 48.6142 13.4224C48.6142 8.25659 44.3719 4.06885 39.1387 4.06885C35.2483 4.06885 31.9055 6.38327 30.4462 9.69341C29.264 8.68585 27.7299 8.07752 26.0535 8.07752C22.3155 8.07752 19.2853 11.102 19.2853 14.8329C19.2853 15.0406 19.2947 15.2462 19.3131 15.4492C17.5152 16.3185 16.2772 18.1425 16.2772 20.252C16.2772 23.2039 18.7014 25.5969 21.6918 25.5969H47.2606C50.251 25.5969 52.6752 23.2039 52.6752 20.252C52.6752 17.7115 50.8796 15.5849 48.4728 15.0416Z" fill="url(#paint0_linear_5202_224)"/>
</g>
<g filter="url(#filter1_f_5202_224)">
<path d="M34 12.0886C28.4368 19.642 27.4721 29.9503 32.3796 38.4505C37.2872 46.9506 46.6968 51.2693 56.0198 50.2281C54.0375 52.9196 51.4713 55.2613 48.3788 57.0467C36.6076 63.8428 21.6693 60.006 15.013 48.4771C8.35677 36.9481 12.5032 22.0927 24.2744 15.2966C27.3669 13.5112 30.6779 12.4596 34 12.0886Z" fill="#848484"/>
</g>
<g filter="url(#filter2_i_5202_224)">
<path d="M33.4813 15.2719C28.403 22.1669 27.5224 31.5767 32.0022 39.3359C36.482 47.0951 45.0714 51.0374 53.5817 50.0869C51.7722 52.5438 49.4297 54.6814 46.6067 56.3112C35.8616 62.5149 22.2254 59.0125 16.1494 48.4885C10.0733 37.9645 13.8583 24.404 24.6034 18.2003C27.4264 16.5705 30.4488 15.6106 33.4813 15.2719Z" fill="url(#paint1_linear_5202_224)"/>
</g>
<defs>
<filter id="filter0_i_5202_224" x="16.2772" y="4.06885" width="36.398" height="23.7472" filterUnits="userSpaceOnUse" color-interpolation-filters="sRGB">
<feFlood flood-opacity="0" result="BackgroundImageFix"/>
<feBlend mode="normal" in="SourceGraphic" in2="BackgroundImageFix" result="shape"/>
<feColorMatrix in="SourceAlpha" type="matrix" values="0 0 0 0 0 0 0 0 0 0 0 0 0 0 0 0 0 0 127 0" result="hardAlpha"/>
<feOffset dy="2.44133"/>
<feGaussianBlur stdDeviation="1.10969"/>
<feComposite in2="hardAlpha" operator="arithmetic" k2="-1" k3="1"/>
<feColorMatrix type="matrix" values="0 0 0 0 1 0 0 0 0 1 0 0 0 0 1 0 0 0 1 0"/>
<feBlend mode="normal" in2="shape" result="effect1_innerShadow_5202_224"/>
</filter>
<filter id="filter1_f_5202_224" x="0.0743341" y="0.326104" width="67.7083" height="71.8444" filterUnits="userSpaceOnUse" color-interpolation-filters="sRGB">
<feFlood flood-opacity="0" result="BackgroundImageFix"/>
<feBlend mode="normal" in="SourceGraphic" in2="BackgroundImageFix" result="shape"/>
<feGaussianBlur stdDeviation="5.88138" result="effect1_foregroundBlur_5202_224"/>
</filter>
<filter id="filter2_i_5202_224" x="13.2503" y="15.272" width="40.3314" height="44.9947" filterUnits="userSpaceOnUse" color-interpolation-filters="sRGB">
<feFlood flood-opacity="0" result="BackgroundImageFix"/>
<feBlend mode="normal" in="SourceGraphic" in2="BackgroundImageFix" result="shape"/>
<feColorMatrix in="SourceAlpha" type="matrix" values="0 0 0 0 0 0 0 0 0 0 0 0 0 0 0 0 0 0 127 0" result="hardAlpha"/>
<feOffset dy="0.887756"/>
<feGaussianBlur stdDeviation="0.887756"/>
<feComposite in2="hardAlpha" operator="arithmetic" k2="-1" k3="1"/>
<feColorMatrix type="matrix" values="0 0 0 0 1 0 0 0 0 1 0 0 0 0 1 0 0 0 0.55 0"/>
<feBlend mode="normal" in2="shape" result="effect1_innerShadow_5202_224"/>
</filter>
<linearGradient id="paint0_linear_5202_224" x1="18.5923" y1="23.6748" x2="55.2149" y2="-3.81284" gradientUnits="userSpaceOnUse">
<stop stop-color="white"/>
<stop offset="1" stop-color="white" stop-opacity="0.58"/>
</linearGradient>
<linearGradient id="paint1_linear_5202_224" x1="34.5871" y1="11.6153" x2="26.5251" y2="60.431" gradientUnits="userSpaceOnUse">
<stop stop-color="#848484"/>
<stop offset="1" stop-color="#242424"/>
</linearGradient>
</defs>
</svg>
