<svg width="96" height="83" viewBox="0 0 96 83" fill="none" xmlns="http://www.w3.org/2000/svg">
<g filter="url(#filter0_f_5202_247)">
<path d="M19.6696 35.197C19.0942 35.197 18.5424 34.9684 18.1355 34.5615C17.7286 34.1546 17.5 33.6028 17.5 33.0273C17.5 32.4519 17.7286 31.9001 18.1355 31.4932C18.5424 31.0863 19.0942 30.8577 19.6696 30.8577H45.7054C46.4975 30.8571 47.2743 30.6397 47.9517 30.229C48.6291 29.8184 49.1811 29.2301 49.548 28.5281C49.9148 27.826 50.0825 27.037 50.0329 26.2464C49.9832 25.4558 49.7181 24.6939 49.2663 24.0433C48.8144 23.3927 48.1931 22.8781 47.4697 22.5555C46.7463 22.2328 45.9483 22.1143 45.1624 22.2128C44.3764 22.3114 43.6324 22.6232 43.011 23.1144C42.3896 23.6057 41.9145 24.2576 41.6373 24.9997C41.5509 25.2815 41.408 25.5429 41.2173 25.7677C41.0266 25.9925 40.7921 26.1761 40.528 26.3072C40.264 26.4384 39.976 26.5144 39.6816 26.5305C39.3873 26.5466 39.0927 26.5026 38.8159 26.4011C38.5391 26.2996 38.2859 26.1428 38.0717 25.9402C37.8576 25.7376 37.687 25.4935 37.5703 25.2227C37.4536 24.952 37.3934 24.6603 37.3932 24.3655C37.393 24.0707 37.4529 23.7789 37.5692 23.508C38.1193 22.0206 39.0665 20.7123 40.3078 19.7253C41.5492 18.7384 43.0373 18.1104 44.6104 17.9097C46.1836 17.7089 47.7816 17.9431 49.2311 18.5867C50.6805 19.2303 51.9259 20.2588 52.8319 21.5605C53.7379 22.8621 54.2699 24.3871 54.3701 25.9698C54.4704 27.5526 54.135 29.1325 53.4005 30.5381C52.6659 31.9436 51.5603 33.121 50.2037 33.9424C48.847 34.7637 47.2913 35.1976 45.7054 35.197H19.6696ZM54.3839 48.2148H24.0089C23.4335 48.2148 22.8816 48.4434 22.4748 48.8503C22.0679 49.2572 21.8393 49.8091 21.8393 50.3845C21.8393 50.9599 22.0679 51.5118 22.4748 51.9187C22.8816 52.3255 23.4335 52.5541 24.0089 52.5541H54.3839C55.1761 52.5547 55.9529 52.7721 56.6303 53.1828C57.3076 53.5935 57.8597 54.1817 58.2265 54.8837C58.5934 55.5858 58.7611 56.3749 58.7114 57.1654C58.6618 57.956 58.3967 58.7179 57.9448 59.3685C57.493 60.0192 56.8717 60.5337 56.1483 60.8564C55.4249 61.179 54.6269 61.2975 53.8409 61.199C53.055 61.1005 52.3109 60.7887 51.6896 60.2974C51.0682 59.8062 50.5931 59.1542 50.3158 58.4122C50.2295 58.1303 50.0866 57.869 49.8959 57.6442C49.7052 57.4193 49.4706 57.2358 49.2066 57.1046C48.9426 56.9735 48.6546 56.8975 48.3602 56.8813C48.0658 56.8652 47.7713 56.9092 47.4945 57.0107C47.2177 57.1122 46.9645 57.269 46.7503 57.4716C46.5362 57.6742 46.3655 57.9184 46.2489 58.1891C46.1322 58.4598 46.0719 58.7515 46.0717 59.0463C46.0716 59.3411 46.1314 59.6329 46.2478 59.9038C46.7979 61.3912 47.7451 62.6995 48.9864 63.6865C50.2278 64.6735 51.7158 65.3014 53.289 65.5022C54.8621 65.7029 56.4602 65.4688 57.9096 64.8251C59.3591 64.1815 60.6044 63.153 61.5104 61.8514C62.4164 60.5497 62.9485 59.0247 63.0487 57.442C63.149 55.8593 62.8136 54.2793 62.0791 52.8738C61.3445 51.4682 60.2389 50.2908 58.8822 49.4695C57.5256 48.6481 55.9698 48.2142 54.3839 48.2148ZM69.5714 26.5184C67.7996 26.523 66.0713 27.0681 64.6175 28.0809C63.1636 29.0938 62.0535 30.5261 61.4353 32.1866C61.3189 32.4575 61.2591 32.7493 61.2592 33.0441C61.2594 33.3389 61.3197 33.6306 61.4364 33.9013C61.553 34.172 61.7237 34.4162 61.9378 34.6188C62.152 34.8214 62.4052 34.9782 62.682 35.0797C62.9588 35.1812 63.2533 35.2252 63.5477 35.2091C63.8421 35.1929 64.1301 35.117 64.3941 34.9858C64.6581 34.8546 64.8927 34.6711 65.0834 34.4463C65.2741 34.2214 65.417 33.9601 65.5033 33.6782C65.7806 32.9362 66.2557 32.2842 66.8771 31.793C67.4984 31.3017 68.2425 30.9899 69.0284 30.8914C69.8144 30.7929 70.6124 30.9114 71.3358 31.234C72.0592 31.5567 72.6805 32.0713 73.1323 32.7219C73.5842 33.3725 73.8493 34.1344 73.8989 34.925C73.9486 35.7155 73.7809 36.5046 73.414 37.2067C73.0472 37.9087 72.4951 38.497 71.8178 38.9076C71.1404 39.3183 70.3636 39.5357 69.5714 39.5363H21.8393C21.2639 39.5363 20.712 39.7649 20.3051 40.1717C19.8982 40.5786 19.6696 41.1305 19.6696 41.7059C19.6696 42.2813 19.8982 42.8332 20.3051 43.2401C20.712 43.647 21.2639 43.8756 21.8393 43.8756H69.5714C71.8731 43.8756 74.0806 42.9612 75.7081 41.3337C77.3357 39.7061 78.25 37.4987 78.25 35.197C78.25 32.8953 77.3357 30.6879 75.7081 29.0603C74.0806 27.4328 71.8731 26.5184 69.5714 26.5184Z" fill="url(#paint0_linear_5202_247)"/>
</g>
<path d="M21.5268 35.0541C20.9892 35.0541 20.4737 34.8406 20.0936 34.4605C19.7135 34.0804 19.5 33.5649 19.5 33.0273C19.5 32.4898 19.7135 31.9743 20.0936 31.5942C20.4737 31.2141 20.9892 31.0006 21.5268 31.0006H45.8482C46.5882 31 47.3139 30.7969 47.9466 30.4133C48.5794 30.0297 49.0951 29.4802 49.4378 28.8243C49.7805 28.1685 49.9372 27.4314 49.8908 26.6929C49.8444 25.9544 49.5967 25.2426 49.1747 24.6349C48.7526 24.0271 48.1722 23.5464 47.4964 23.245C46.8206 22.9436 46.0752 22.8329 45.341 22.9249C44.6067 23.0169 43.9117 23.3082 43.3312 23.7671C42.7508 24.226 42.307 24.8351 42.048 25.5282C41.9673 25.7916 41.8338 26.0357 41.6557 26.2457C41.4775 26.4557 41.2584 26.6272 41.0118 26.7497C40.7651 26.8722 40.4961 26.9432 40.2211 26.9583C39.9461 26.9734 39.6709 26.9322 39.4124 26.8374C39.1538 26.7426 38.9173 26.5961 38.7172 26.4068C38.5172 26.2176 38.3578 25.9895 38.2488 25.7366C38.1398 25.4837 38.0835 25.2112 38.0833 24.9358C38.0832 24.6604 38.1391 24.3879 38.2478 24.1348C38.7617 22.7453 39.6465 21.5232 40.8061 20.6012C41.9657 19.6792 43.3558 19.0926 44.8254 18.9051C46.2949 18.7175 47.7878 18.9363 49.1418 19.5375C50.4958 20.1388 51.6591 21.0996 52.5055 22.3155C53.3518 23.5314 53.8488 24.956 53.9425 26.4345C54.0361 27.913 53.7228 29.389 53.0367 30.702C52.3505 32.015 51.3177 33.1148 50.0503 33.8821C48.783 34.6494 47.3297 35.0547 45.8482 35.0541H21.5268ZM53.9554 47.2148H25.5804C25.0428 47.2148 24.5273 47.4284 24.1472 47.8085C23.7671 48.1886 23.5536 48.7041 23.5536 49.2416C23.5536 49.7792 23.7671 50.2947 24.1472 50.6748C24.5273 51.0549 25.0428 51.2684 25.5804 51.2684H53.9554C54.6953 51.269 55.421 51.4721 56.0538 51.8557C56.6866 52.2393 57.2022 52.7888 57.5449 53.4446C57.8876 54.1005 58.0443 54.8376 57.9979 55.5761C57.9515 56.3146 57.7039 57.0263 57.2818 57.6341C56.8597 58.2419 56.2793 58.7226 55.6035 59.024C54.9277 59.3254 54.1823 59.4361 53.4481 59.3441C52.7139 59.252 52.0189 58.9608 51.4384 58.5019C50.8579 58.043 50.4141 57.4339 50.1551 56.7407C50.0745 56.4774 49.941 56.2333 49.7628 56.0233C49.5846 55.8133 49.3656 55.6418 49.1189 55.5193C48.8723 55.3968 48.6032 55.3258 48.3283 55.3107C48.0533 55.2956 47.7781 55.3367 47.5195 55.4315C47.261 55.5264 47.0244 55.6729 46.8244 55.8621C46.6243 56.0514 46.4649 56.2794 46.3559 56.5324C46.2469 56.7853 46.1906 57.0578 46.1905 57.3332C46.1903 57.6086 46.2462 57.8811 46.3549 58.1342C46.8688 59.5237 47.7536 60.7458 48.9132 61.6678C50.0728 62.5898 51.4629 63.1764 52.9325 63.3639C54.4021 63.5514 55.8949 63.3327 57.2489 62.7314C58.6029 62.1302 59.7663 61.1694 60.6126 59.9535C61.459 58.7376 61.956 57.313 62.0496 55.8345C62.1433 54.3559 61.83 52.88 61.1438 51.567C60.4576 50.254 59.4248 49.1541 58.1575 48.3869C56.8902 47.6196 55.4368 47.2142 53.9554 47.2148ZM68.1429 26.947C66.4877 26.9513 64.8732 27.4605 63.5151 28.4066C62.157 29.3528 61.1199 30.6908 60.5424 32.242C60.4337 32.495 60.3778 32.7676 60.378 33.043C60.3781 33.3184 60.4344 33.5908 60.5434 33.8438C60.6524 34.0967 60.8118 34.3247 61.0119 34.514C61.2119 34.7033 61.4485 34.8498 61.707 34.9446C61.9656 35.0394 62.2408 35.0805 62.5157 35.0654C62.7907 35.0503 63.0598 34.9794 63.3064 34.8569C63.5531 34.7343 63.7721 34.5628 63.9503 34.3528C64.1285 34.1428 64.262 33.8987 64.3426 33.6354C64.6016 32.9422 65.0454 32.3332 65.6259 31.8743C66.2064 31.4153 66.9014 31.1241 67.6356 31.032C68.3698 30.94 69.1152 31.0507 69.791 31.3521C70.4668 31.6535 71.0472 32.1342 71.4693 32.742C71.8914 33.3498 72.139 34.0615 72.1854 34.8C72.2318 35.5385 72.0751 36.2757 71.7324 36.9315C71.3897 37.5873 70.8741 38.1368 70.2413 38.5204C69.6085 38.9041 68.8828 39.1071 68.1429 39.1077H23.5536C23.016 39.1077 22.5005 39.3212 22.1204 39.7013C21.7403 40.0814 21.5268 40.597 21.5268 41.1345C21.5268 41.672 21.7403 42.1875 22.1204 42.5676C22.5005 42.9477 23.016 43.1613 23.5536 43.1613H68.1429C70.293 43.1613 72.3551 42.3071 73.8755 40.7867C75.3959 39.2664 76.25 37.2043 76.25 35.0541C76.25 32.904 75.3959 30.8419 73.8755 29.3215C72.3551 27.8011 70.293 26.947 68.1429 26.947Z" fill="url(#paint1_linear_5202_247)"/>
<defs>
<filter id="filter0_f_5202_247" x="0.5" y="0.839844" width="94.75" height="81.7319" filterUnits="userSpaceOnUse" color-interpolation-filters="sRGB">
<feFlood flood-opacity="0" result="BackgroundImageFix"/>
<feBlend mode="normal" in="SourceGraphic" in2="BackgroundImageFix" result="shape"/>
<feGaussianBlur stdDeviation="8.5" result="effect1_foregroundBlur_5202_247"/>
</filter>
<linearGradient id="paint0_linear_5202_247" x1="17.2324" y1="18.3463" x2="78.25" y2="65.4477" gradientUnits="userSpaceOnUse">
<stop stop-color="#B7D7E5"/>
<stop offset="1" stop-color="#00B3FF"/>
</linearGradient>
<linearGradient id="paint1_linear_5202_247" x1="19.25" y1="19.313" x2="76.25" y2="63.313" gradientUnits="userSpaceOnUse">
<stop stop-color="#B7D7E5"/>
<stop offset="1" stop-color="#00B3FF"/>
</linearGradient>
</defs>
</svg>
