<svg width="96" height="83" viewBox="0 0 96 83" fill="none" xmlns="http://www.w3.org/2000/svg">
<g filter="url(#filter0_f_5202_235)">
<path d="M19.9196 35.197C19.3442 35.197 18.7924 34.9684 18.3855 34.5615C17.9786 34.1546 17.75 33.6028 17.75 33.0273C17.75 32.4519 17.9786 31.9001 18.3855 31.4932C18.7924 31.0863 19.3442 30.8577 19.9196 30.8577H45.9554C46.7475 30.8571 47.5243 30.6397 48.2017 30.229C48.8791 29.8184 49.4311 29.2301 49.798 28.5281C50.1648 27.826 50.3325 27.037 50.2829 26.2464C50.2332 25.4558 49.9681 24.6939 49.5163 24.0433C49.0644 23.3927 48.4431 22.8781 47.7197 22.5555C46.9963 22.2328 46.1983 22.1143 45.4124 22.2128C44.6264 22.3114 43.8824 22.6232 43.261 23.1144C42.6396 23.6057 42.1645 24.2576 41.8873 24.9997C41.8009 25.2815 41.658 25.5429 41.4673 25.7677C41.2766 25.9925 41.0421 26.1761 40.778 26.3072C40.514 26.4384 40.226 26.5144 39.9316 26.5305C39.6373 26.5466 39.3427 26.5026 39.0659 26.4011C38.7891 26.2996 38.5359 26.1428 38.3217 25.9402C38.1076 25.7376 37.937 25.4935 37.8203 25.2227C37.7036 24.952 37.6434 24.6603 37.6432 24.3655C37.643 24.0707 37.7029 23.7789 37.8192 23.508C38.3693 22.0206 39.3165 20.7123 40.5578 19.7253C41.7992 18.7384 43.2873 18.1104 44.8604 17.9097C46.4336 17.7089 48.0316 17.9431 49.4811 18.5867C50.9305 19.2303 52.1759 20.2588 53.0819 21.5605C53.9879 22.8621 54.5199 24.3871 54.6201 25.9698C54.7204 27.5526 54.385 29.1325 53.6505 30.5381C52.9159 31.9436 51.8103 33.121 50.4537 33.9424C49.097 34.7637 47.5413 35.1976 45.9554 35.197H19.9196ZM54.6339 48.2148H24.2589C23.6835 48.2148 23.1316 48.4434 22.7248 48.8503C22.3179 49.2572 22.0893 49.8091 22.0893 50.3845C22.0893 50.9599 22.3179 51.5118 22.7248 51.9187C23.1316 52.3255 23.6835 52.5541 24.2589 52.5541H54.6339C55.4261 52.5547 56.2029 52.7721 56.8803 53.1828C57.5576 53.5935 58.1097 54.1817 58.4765 54.8837C58.8434 55.5858 59.0111 56.3749 58.9614 57.1654C58.9118 57.956 58.6467 58.7179 58.1948 59.3685C57.743 60.0192 57.1217 60.5337 56.3983 60.8564C55.6749 61.179 54.8769 61.2975 54.0909 61.199C53.305 61.1005 52.5609 60.7887 51.9396 60.2974C51.3182 59.8062 50.8431 59.1542 50.5658 58.4122C50.4795 58.1303 50.3366 57.869 50.1459 57.6442C49.9552 57.4193 49.7206 57.2358 49.4566 57.1046C49.1926 56.9735 48.9046 56.8975 48.6102 56.8813C48.3158 56.8652 48.0213 56.9092 47.7445 57.0107C47.4677 57.1122 47.2145 57.269 47.0003 57.4716C46.7862 57.6742 46.6155 57.9184 46.4989 58.1891C46.3822 58.4598 46.3219 58.7515 46.3217 59.0463C46.3216 59.3411 46.3814 59.6329 46.4978 59.9038C47.0479 61.3912 47.9951 62.6995 49.2364 63.6865C50.4778 64.6735 51.9658 65.3014 53.539 65.5022C55.1121 65.7029 56.7102 65.4688 58.1596 64.8251C59.6091 64.1815 60.8544 63.153 61.7604 61.8514C62.6664 60.5497 63.1985 59.0247 63.2987 57.442C63.399 55.8593 63.0636 54.2793 62.3291 52.8738C61.5945 51.4682 60.4889 50.2908 59.1322 49.4695C57.7756 48.6481 56.2198 48.2142 54.6339 48.2148ZM69.8214 26.5184C68.0496 26.523 66.3213 27.0681 64.8675 28.0809C63.4136 29.0938 62.3035 30.5261 61.6853 32.1866C61.5689 32.4575 61.5091 32.7493 61.5092 33.0441C61.5094 33.3389 61.5697 33.6306 61.6864 33.9013C61.803 34.172 61.9737 34.4162 62.1878 34.6188C62.402 34.8214 62.6552 34.9782 62.932 35.0797C63.2088 35.1812 63.5033 35.2252 63.7977 35.2091C64.0921 35.1929 64.3801 35.117 64.6441 34.9858C64.9081 34.8546 65.1427 34.6711 65.3334 34.4463C65.5241 34.2214 65.667 33.9601 65.7533 33.6782C66.0306 32.9362 66.5057 32.2842 67.1271 31.793C67.7484 31.3017 68.4925 30.9899 69.2784 30.8914C70.0644 30.7929 70.8624 30.9114 71.5858 31.234C72.3092 31.5567 72.9305 32.0713 73.3823 32.7219C73.8342 33.3725 74.0993 34.1344 74.1489 34.925C74.1986 35.7155 74.0309 36.5046 73.664 37.2067C73.2972 37.9087 72.7451 38.497 72.0678 38.9076C71.3904 39.3183 70.6136 39.5357 69.8214 39.5363H22.0893C21.5139 39.5363 20.962 39.7649 20.5551 40.1717C20.1482 40.5786 19.9196 41.1305 19.9196 41.7059C19.9196 42.2813 20.1482 42.8332 20.5551 43.2401C20.962 43.647 21.5139 43.8756 22.0893 43.8756H69.8214C72.1231 43.8756 74.3306 42.9612 75.9581 41.3337C77.5857 39.7061 78.5 37.4987 78.5 35.197C78.5 32.8953 77.5857 30.6879 75.9581 29.0603C74.3306 27.4328 72.1231 26.5184 69.8214 26.5184Z" fill="url(#paint0_linear_5202_235)"/>
</g>
<path d="M21.7768 35.0541C21.2392 35.0541 20.7237 34.8406 20.3436 34.4605C19.9635 34.0804 19.75 33.5649 19.75 33.0273C19.75 32.4898 19.9635 31.9743 20.3436 31.5942C20.7237 31.2141 21.2392 31.0006 21.7768 31.0006H46.0982C46.8382 31 47.5639 30.7969 48.1966 30.4133C48.8294 30.0297 49.3451 29.4802 49.6878 28.8243C50.0305 28.1685 50.1872 27.4314 50.1408 26.6929C50.0944 25.9544 49.8467 25.2426 49.4247 24.6349C49.0026 24.0271 48.4222 23.5464 47.7464 23.245C47.0706 22.9436 46.3252 22.8329 45.591 22.9249C44.8567 23.0169 44.1617 23.3082 43.5812 23.7671C43.0008 24.226 42.557 24.8351 42.298 25.5282C42.2173 25.7916 42.0838 26.0357 41.9057 26.2457C41.7275 26.4557 41.5084 26.6272 41.2618 26.7497C41.0151 26.8722 40.7461 26.9432 40.4711 26.9583C40.1961 26.9734 39.9209 26.9322 39.6624 26.8374C39.4038 26.7426 39.1673 26.5961 38.9672 26.4068C38.7672 26.2176 38.6078 25.9895 38.4988 25.7366C38.3898 25.4837 38.3335 25.2112 38.3333 24.9358C38.3332 24.6604 38.3891 24.3879 38.4978 24.1348C39.0117 22.7453 39.8965 21.5232 41.0561 20.6012C42.2157 19.6792 43.6058 19.0926 45.0754 18.9051C46.5449 18.7175 48.0378 18.9363 49.3918 19.5375C50.7458 20.1388 51.9091 21.0996 52.7555 22.3155C53.6018 23.5314 54.0988 24.956 54.1925 26.4345C54.2861 27.913 53.9728 29.389 53.2867 30.702C52.6005 32.015 51.5677 33.1148 50.3003 33.8821C49.033 34.6494 47.5797 35.0547 46.0982 35.0541H21.7768ZM54.2054 47.2148H25.8304C25.2928 47.2148 24.7773 47.4284 24.3972 47.8085C24.0171 48.1886 23.8036 48.7041 23.8036 49.2416C23.8036 49.7792 24.0171 50.2947 24.3972 50.6748C24.7773 51.0549 25.2928 51.2684 25.8304 51.2684H54.2054C54.9453 51.269 55.671 51.4721 56.3038 51.8557C56.9366 52.2393 57.4522 52.7888 57.7949 53.4446C58.1376 54.1005 58.2943 54.8376 58.2479 55.5761C58.2015 56.3146 57.9539 57.0263 57.5318 57.6341C57.1097 58.2419 56.5293 58.7226 55.8535 59.024C55.1777 59.3254 54.4323 59.4361 53.6981 59.3441C52.9639 59.252 52.2689 58.9608 51.6884 58.5019C51.1079 58.043 50.6641 57.4339 50.4051 56.7407C50.3245 56.4774 50.191 56.2333 50.0128 56.0233C49.8346 55.8133 49.6156 55.6418 49.3689 55.5193C49.1223 55.3968 48.8532 55.3258 48.5783 55.3107C48.3033 55.2956 48.0281 55.3367 47.7695 55.4315C47.511 55.5264 47.2744 55.6729 47.0744 55.8621C46.8743 56.0514 46.7149 56.2794 46.6059 56.5324C46.4969 56.7853 46.4406 57.0578 46.4405 57.3332C46.4403 57.6086 46.4962 57.8811 46.6049 58.1342C47.1188 59.5237 48.0036 60.7458 49.1632 61.6678C50.3228 62.5898 51.7129 63.1764 53.1825 63.3639C54.6521 63.5514 56.1449 63.3327 57.4989 62.7314C58.8529 62.1302 60.0163 61.1694 60.8626 59.9535C61.709 58.7376 62.206 57.313 62.2996 55.8345C62.3933 54.3559 62.08 52.88 61.3938 51.567C60.7076 50.254 59.6748 49.1541 58.4075 48.3869C57.1402 47.6196 55.6868 47.2142 54.2054 47.2148ZM68.3929 26.947C66.7377 26.9513 65.1232 27.4605 63.7651 28.4066C62.407 29.3528 61.3699 30.6908 60.7924 32.242C60.6837 32.495 60.6278 32.7676 60.628 33.043C60.6281 33.3184 60.6844 33.5908 60.7934 33.8438C60.9024 34.0967 61.0618 34.3247 61.2619 34.514C61.4619 34.7033 61.6985 34.8498 61.957 34.9446C62.2156 35.0394 62.4908 35.0805 62.7657 35.0654C63.0407 35.0503 63.3098 34.9794 63.5564 34.8569C63.8031 34.7343 64.0221 34.5628 64.2003 34.3528C64.3785 34.1428 64.512 33.8987 64.5926 33.6354C64.8516 32.9422 65.2954 32.3332 65.8759 31.8743C66.4564 31.4153 67.1514 31.1241 67.8856 31.032C68.6198 30.94 69.3652 31.0507 70.041 31.3521C70.7168 31.6535 71.2972 32.1342 71.7193 32.742C72.1414 33.3498 72.389 34.0615 72.4354 34.8C72.4818 35.5385 72.3251 36.2757 71.9824 36.9315C71.6397 37.5873 71.1241 38.1368 70.4913 38.5204C69.8585 38.9041 69.1328 39.1071 68.3929 39.1077H23.8036C23.266 39.1077 22.7505 39.3212 22.3704 39.7013C21.9903 40.0814 21.7768 40.597 21.7768 41.1345C21.7768 41.672 21.9903 42.1875 22.3704 42.5676C22.7505 42.9477 23.266 43.1613 23.8036 43.1613H68.3929C70.543 43.1613 72.6051 42.3071 74.1255 40.7867C75.6459 39.2664 76.5 37.2043 76.5 35.0541C76.5 32.904 75.6459 30.8419 74.1255 29.3215C72.6051 27.8011 70.543 26.947 68.3929 26.947Z" fill="url(#paint1_linear_5202_235)"/>
<defs>
<filter id="filter0_f_5202_235" x="0.75" y="0.839844" width="94.75" height="81.7319" filterUnits="userSpaceOnUse" color-interpolation-filters="sRGB">
<feFlood flood-opacity="0" result="BackgroundImageFix"/>
<feBlend mode="normal" in="SourceGraphic" in2="BackgroundImageFix" result="shape"/>
<feGaussianBlur stdDeviation="8.5" result="effect1_foregroundBlur_5202_235"/>
</filter>
<linearGradient id="paint0_linear_5202_235" x1="17.4824" y1="18.3463" x2="78.5" y2="65.4477" gradientUnits="userSpaceOnUse">
<stop stop-color="#B7D7E5"/>
<stop offset="1" stop-color="#00B3FF"/>
</linearGradient>
<linearGradient id="paint1_linear_5202_235" x1="19.5" y1="19.313" x2="76.5" y2="63.313" gradientUnits="userSpaceOnUse">
<stop stop-color="#B7D7E5"/>
<stop offset="1" stop-color="#00B3FF"/>
</linearGradient>
</defs>
</svg>
