<svg width="96" height="113" viewBox="0 0 96 113" fill="none" xmlns="http://www.w3.org/2000/svg">
<g filter="url(#filter0_f_5201_69)">
<rect x="24.6956" y="18.0356" width="53.2653" height="50.1582" rx="20.8623" fill="#FFEF9A"/>
</g>
<g filter="url(#filter1_i_5201_69)">
<path d="M74.4098 47.1095C74.4098 59.8571 64.0758 70.1911 51.3282 70.1911C38.5805 70.1911 28.2465 59.8571 28.2465 47.1095C28.2465 34.3618 38.5805 24.0278 51.3282 24.0278C64.0758 24.0278 74.4098 34.3618 74.4098 47.1095Z" fill="url(#paint0_linear_5201_69)"/>
</g>
<g filter="url(#filter2_b_5201_69)">
<g filter="url(#filter3_i_5201_69)">
<path d="M64.4949 59.0126C64.6553 58.1017 64.739 57.1647 64.739 56.2083C64.739 47.2613 57.4184 40.0083 48.388 40.0083C41.6746 40.0083 35.9062 44.0168 33.388 49.7498C31.348 48.0048 28.7008 46.9512 25.808 46.9512C19.3577 46.9512 14.1287 52.1894 14.1287 58.6512C14.1287 59.011 14.1449 59.367 14.1766 59.7186C11.0741 61.2242 8.93787 64.3834 8.93787 68.0369C8.93787 73.1495 13.1211 77.294 18.2813 77.294H62.4031C67.5634 77.294 71.7466 73.1495 71.7466 68.0369C71.7466 63.6368 68.6481 59.9537 64.4949 59.0126Z" fill="url(#paint1_linear_5201_69)"/>
</g>
</g>
<g filter="url(#filter4_i_5201_69)">
<path d="M28.4089 81.5269C25.6156 85.1911 21.7049 92.5196 28.4089 92.5196C35.113 92.5196 31.2023 85.1911 28.4089 81.5269Z" fill="#00BCFF"/>
</g>
<g filter="url(#filter5_i_5201_69)">
<path d="M44.1128 86.9111C41.3195 90.5754 37.4088 97.9039 44.1128 97.9039C50.8169 97.9039 46.9062 90.5754 44.1128 86.9111Z" fill="#00BCFF"/>
</g>
<g filter="url(#filter6_i_5201_69)">
<path d="M58.6952 81.5269C55.9018 85.1911 51.9911 92.5196 58.6952 92.5196C65.3992 92.5196 61.4885 85.1911 58.6952 81.5269Z" fill="#00BCFF"/>
</g>
<g opacity="0.7" filter="url(#filter7_f_5201_69)">
<rect x="17.7526" y="87.2935" width="53.8422" height="7.85199" rx="3.92599" fill="#00BCFF"/>
</g>
<defs>
<filter id="filter0_f_5201_69" x="7.60626" y="0.946346" width="87.4439" height="84.3368" filterUnits="userSpaceOnUse" color-interpolation-filters="sRGB">
<feFlood flood-opacity="0" result="BackgroundImageFix"/>
<feBlend mode="normal" in="SourceGraphic" in2="BackgroundImageFix" result="shape"/>
<feGaussianBlur stdDeviation="8.54465" result="effect1_foregroundBlur_5201_69"/>
</filter>
<filter id="filter1_i_5201_69" x="28.2465" y="24.0278" width="46.1633" height="47.2728" filterUnits="userSpaceOnUse" color-interpolation-filters="sRGB">
<feFlood flood-opacity="0" result="BackgroundImageFix"/>
<feBlend mode="normal" in="SourceGraphic" in2="BackgroundImageFix" result="shape"/>
<feColorMatrix in="SourceAlpha" type="matrix" values="0 0 0 0 0 0 0 0 0 0 0 0 0 0 0 0 0 0 127 0" result="hardAlpha"/>
<feOffset dy="1.10969"/>
<feGaussianBlur stdDeviation="1.99745"/>
<feComposite in2="hardAlpha" operator="arithmetic" k2="-1" k3="1"/>
<feColorMatrix type="matrix" values="0 0 0 0 1 0 0 0 0 1 0 0 0 0 1 0 0 0 0.81 0"/>
<feBlend mode="normal" in2="shape" result="effect1_innerShadow_5201_69"/>
</filter>
<filter id="filter2_b_5201_69" x="2.94552" y="34.0155" width="74.7934" height="49.2708" filterUnits="userSpaceOnUse" color-interpolation-filters="sRGB">
<feFlood flood-opacity="0" result="BackgroundImageFix"/>
<feGaussianBlur in="BackgroundImageFix" stdDeviation="2.99618"/>
<feComposite in2="SourceAlpha" operator="in" result="effect1_backgroundBlur_5201_69"/>
<feBlend mode="normal" in="SourceGraphic" in2="effect1_backgroundBlur_5201_69" result="shape"/>
</filter>
<filter id="filter3_i_5201_69" x="8.93787" y="40.0083" width="62.8087" height="39.505" filterUnits="userSpaceOnUse" color-interpolation-filters="sRGB">
<feFlood flood-opacity="0" result="BackgroundImageFix"/>
<feBlend mode="normal" in="SourceGraphic" in2="BackgroundImageFix" result="shape"/>
<feColorMatrix in="SourceAlpha" type="matrix" values="0 0 0 0 0 0 0 0 0 0 0 0 0 0 0 0 0 0 127 0" result="hardAlpha"/>
<feOffset dy="2.44133"/>
<feGaussianBlur stdDeviation="1.10969"/>
<feComposite in2="hardAlpha" operator="arithmetic" k2="-1" k3="1"/>
<feColorMatrix type="matrix" values="0 0 0 0 1 0 0 0 0 1 0 0 0 0 1 0 0 0 1 0"/>
<feBlend mode="normal" in2="shape" result="effect1_innerShadow_5201_69"/>
</filter>
<filter id="filter4_i_5201_69" x="24.7073" y="81.5269" width="7.40332" height="11.6657" filterUnits="userSpaceOnUse" color-interpolation-filters="sRGB">
<feFlood flood-opacity="0" result="BackgroundImageFix"/>
<feBlend mode="normal" in="SourceGraphic" in2="BackgroundImageFix" result="shape"/>
<feColorMatrix in="SourceAlpha" type="matrix" values="0 0 0 0 0 0 0 0 0 0 0 0 0 0 0 0 0 0 127 0" result="hardAlpha"/>
<feOffset dy="2.01908"/>
<feGaussianBlur stdDeviation="0.336514"/>
<feComposite in2="hardAlpha" operator="arithmetic" k2="-1" k3="1"/>
<feColorMatrix type="matrix" values="0 0 0 0 1 0 0 0 0 1 0 0 0 0 1 0 0 0 0.21 0"/>
<feBlend mode="normal" in2="shape" result="effect1_innerShadow_5201_69"/>
</filter>
<filter id="filter5_i_5201_69" x="40.4112" y="86.9111" width="7.40332" height="11.6657" filterUnits="userSpaceOnUse" color-interpolation-filters="sRGB">
<feFlood flood-opacity="0" result="BackgroundImageFix"/>
<feBlend mode="normal" in="SourceGraphic" in2="BackgroundImageFix" result="shape"/>
<feColorMatrix in="SourceAlpha" type="matrix" values="0 0 0 0 0 0 0 0 0 0 0 0 0 0 0 0 0 0 127 0" result="hardAlpha"/>
<feOffset dy="2.01908"/>
<feGaussianBlur stdDeviation="0.336514"/>
<feComposite in2="hardAlpha" operator="arithmetic" k2="-1" k3="1"/>
<feColorMatrix type="matrix" values="0 0 0 0 1 0 0 0 0 1 0 0 0 0 1 0 0 0 0.21 0"/>
<feBlend mode="normal" in2="shape" result="effect1_innerShadow_5201_69"/>
</filter>
<filter id="filter6_i_5201_69" x="54.9935" y="81.5269" width="7.40332" height="11.6657" filterUnits="userSpaceOnUse" color-interpolation-filters="sRGB">
<feFlood flood-opacity="0" result="BackgroundImageFix"/>
<feBlend mode="normal" in="SourceGraphic" in2="BackgroundImageFix" result="shape"/>
<feColorMatrix in="SourceAlpha" type="matrix" values="0 0 0 0 0 0 0 0 0 0 0 0 0 0 0 0 0 0 127 0" result="hardAlpha"/>
<feOffset dy="2.01908"/>
<feGaussianBlur stdDeviation="0.336514"/>
<feComposite in2="hardAlpha" operator="arithmetic" k2="-1" k3="1"/>
<feColorMatrix type="matrix" values="0 0 0 0 1 0 0 0 0 1 0 0 0 0 1 0 0 0 0.21 0"/>
<feBlend mode="normal" in2="shape" result="effect1_innerShadow_5201_69"/>
</filter>
<filter id="filter7_f_5201_69" x="0.253912" y="69.7947" width="88.8396" height="42.8495" filterUnits="userSpaceOnUse" color-interpolation-filters="sRGB">
<feFlood flood-opacity="0" result="BackgroundImageFix"/>
<feBlend mode="normal" in="SourceGraphic" in2="BackgroundImageFix" result="shape"/>
<feGaussianBlur stdDeviation="8.74936" result="effect1_foregroundBlur_5201_69"/>
</filter>
<linearGradient id="paint0_linear_5201_69" x1="47.8221" y1="59.6729" x2="66.8133" y2="26.3652" gradientUnits="userSpaceOnUse">
<stop stop-color="#FF9900"/>
<stop offset="1" stop-color="#FFEE94"/>
</linearGradient>
<linearGradient id="paint1_linear_5201_69" x1="12.9328" y1="73.965" x2="76.2963" y2="26.581" gradientUnits="userSpaceOnUse">
<stop stop-color="white"/>
<stop offset="1" stop-color="white" stop-opacity="0.58"/>
</linearGradient>
</defs>
</svg>
