<svg width="64" height="38" viewBox="0 0 64 38" fill="none" xmlns="http://www.w3.org/2000/svg">
<g filter="url(#filter0_b_5202_221)">
<g filter="url(#filter1_i_5202_221)">
<path d="M56.057 19.3569C56.2175 18.446 56.3011 17.5089 56.3011 16.5525C56.3011 7.60553 48.9805 0.352539 39.9501 0.352539C33.2367 0.352539 27.4683 4.36103 24.9502 10.094C22.9101 8.349 20.2629 7.2954 17.3701 7.2954C10.9198 7.2954 5.6908 12.5337 5.6908 18.9954C5.6908 19.3552 5.70702 19.7113 5.73876 20.0628C2.63627 21.5684 0.500001 24.7276 0.500001 28.3811C0.500001 33.4937 4.68321 37.6383 9.84345 37.6383H53.9653C59.1255 37.6383 63.3087 33.4937 63.3087 28.3811C63.3087 23.981 60.2102 20.2979 56.057 19.3569Z" fill="url(#paint0_linear_5202_221)"/>
</g>
</g>
<defs>
<filter id="filter0_b_5202_221" x="-5.49235" y="-5.6403" width="74.7934" height="49.2708" filterUnits="userSpaceOnUse" color-interpolation-filters="sRGB">
<feFlood flood-opacity="0" result="BackgroundImageFix"/>
<feGaussianBlur in="BackgroundImageFix" stdDeviation="2.99618"/>
<feComposite in2="SourceAlpha" operator="in" result="effect1_backgroundBlur_5202_221"/>
<feBlend mode="normal" in="SourceGraphic" in2="effect1_backgroundBlur_5202_221" result="shape"/>
</filter>
<filter id="filter1_i_5202_221" x="0.5" y="0.352539" width="62.8087" height="39.505" filterUnits="userSpaceOnUse" color-interpolation-filters="sRGB">
<feFlood flood-opacity="0" result="BackgroundImageFix"/>
<feBlend mode="normal" in="SourceGraphic" in2="BackgroundImageFix" result="shape"/>
<feColorMatrix in="SourceAlpha" type="matrix" values="0 0 0 0 0 0 0 0 0 0 0 0 0 0 0 0 0 0 127 0" result="hardAlpha"/>
<feOffset dy="2.44133"/>
<feGaussianBlur stdDeviation="1.10969"/>
<feComposite in2="hardAlpha" operator="arithmetic" k2="-1" k3="1"/>
<feColorMatrix type="matrix" values="0 0 0 0 1 0 0 0 0 1 0 0 0 0 1 0 0 0 1 0"/>
<feBlend mode="normal" in2="shape" result="effect1_innerShadow_5202_221"/>
</filter>
<linearGradient id="paint0_linear_5202_221" x1="4.4949" y1="34.3092" x2="67.8585" y2="-13.0748" gradientUnits="userSpaceOnUse">
<stop stop-color="white"/>
<stop offset="1" stop-color="white" stop-opacity="0.58"/>
</linearGradient>
</defs>
</svg>
