<svg width="64" height="38" viewBox="0 0 64 38" fill="none" xmlns="http://www.w3.org/2000/svg">
<g filter="url(#filter0_b_5201_49)">
<g filter="url(#filter1_i_5201_49)">
<path d="M56.2483 19.3569C56.4088 18.446 56.4924 17.5089 56.4924 16.5525C56.4924 7.60553 49.1718 0.352539 40.1414 0.352539C33.428 0.352539 27.6596 4.36103 25.1414 10.094C23.1014 8.349 20.4542 7.2954 17.5614 7.2954C11.1111 7.2954 5.88209 12.5337 5.88209 18.9954C5.88209 19.3552 5.8983 19.7113 5.93004 20.0628C2.82756 21.5684 0.691285 24.7276 0.691285 28.3811C0.691285 33.4937 4.87449 37.6383 10.0347 37.6383H54.1566C59.3168 37.6383 63.5 33.4937 63.5 28.3811C63.5 23.981 60.4015 20.2979 56.2483 19.3569Z" fill="url(#paint0_linear_5201_49)"/>
</g>
</g>
<defs>
<filter id="filter0_b_5201_49" x="-5.30107" y="-5.6403" width="74.7934" height="49.2708" filterUnits="userSpaceOnUse" color-interpolation-filters="sRGB">
<feFlood flood-opacity="0" result="BackgroundImageFix"/>
<feGaussianBlur in="BackgroundImageFix" stdDeviation="2.99618"/>
<feComposite in2="SourceAlpha" operator="in" result="effect1_backgroundBlur_5201_49"/>
<feBlend mode="normal" in="SourceGraphic" in2="effect1_backgroundBlur_5201_49" result="shape"/>
</filter>
<filter id="filter1_i_5201_49" x="0.691284" y="0.352539" width="62.8087" height="39.505" filterUnits="userSpaceOnUse" color-interpolation-filters="sRGB">
<feFlood flood-opacity="0" result="BackgroundImageFix"/>
<feBlend mode="normal" in="SourceGraphic" in2="BackgroundImageFix" result="shape"/>
<feColorMatrix in="SourceAlpha" type="matrix" values="0 0 0 0 0 0 0 0 0 0 0 0 0 0 0 0 0 0 127 0" result="hardAlpha"/>
<feOffset dy="2.44133"/>
<feGaussianBlur stdDeviation="1.10969"/>
<feComposite in2="hardAlpha" operator="arithmetic" k2="-1" k3="1"/>
<feColorMatrix type="matrix" values="0 0 0 0 1 0 0 0 0 1 0 0 0 0 1 0 0 0 1 0"/>
<feBlend mode="normal" in2="shape" result="effect1_innerShadow_5201_49"/>
</filter>
<linearGradient id="paint0_linear_5201_49" x1="4.68619" y1="34.3092" x2="68.0497" y2="-13.0748" gradientUnits="userSpaceOnUse">
<stop stop-color="white"/>
<stop offset="1" stop-color="white" stop-opacity="0.58"/>
</linearGradient>
</defs>
</svg>
