<svg width="90" height="84" viewBox="0 0 90 84" fill="none" xmlns="http://www.w3.org/2000/svg">
<g filter="url(#filter0_b_5202_204)">
<g filter="url(#filter1_i_5202_204)">
<path d="M44.9959 9.84906C45.0733 9.40964 45.1137 8.9576 45.1137 8.49623C45.1137 4.18008 41.5821 0.681152 37.2257 0.681152C33.9871 0.681152 31.2044 2.61489 29.9896 5.38057C29.0054 4.53874 27.7284 4.03047 26.3329 4.03047C23.2212 4.03047 20.6986 6.55748 20.6986 9.6747C20.6986 9.84828 20.7065 10.02 20.7218 10.1896C19.2251 10.9159 18.1945 12.44 18.1945 14.2025C18.1945 16.6689 20.2126 18.6682 22.7019 18.6682H43.9868C46.4762 18.6682 48.4942 16.6689 48.4942 14.2025C48.4942 12.0798 46.9994 10.3031 44.9959 9.84906Z" fill="url(#paint0_linear_5202_204)"/>
</g>
</g>
<g filter="url(#filter2_b_5202_204)">
<g filter="url(#filter3_i_5202_204)">
<path d="M22.9587 24.8474C22.9975 24.6268 23.0178 24.3998 23.0178 24.1681C23.0178 22.0007 21.2444 20.2437 19.0568 20.2437C17.4305 20.2437 16.0331 21.2147 15.4231 22.6035C14.9289 22.1808 14.2876 21.9256 13.5868 21.9256C12.0242 21.9256 10.7575 23.1945 10.7575 24.7599C10.7575 24.847 10.7614 24.9333 10.7691 25.0184C10.0175 25.3832 9.50002 26.1485 9.50002 27.0336C9.50002 28.2721 10.5134 29.2761 11.7635 29.2761H22.4519C23.702 29.2761 24.7154 28.2721 24.7154 27.0336C24.7154 25.9676 23.9648 25.0754 22.9587 24.8474Z" fill="url(#paint1_linear_5202_204)"/>
</g>
</g>
<g filter="url(#filter4_i_5202_204)">
<path d="M66.8637 31.0531C67.0105 30.2225 67.087 29.368 67.087 28.4958C67.087 20.3368 60.3876 13.7227 52.1235 13.7227C45.9798 13.7227 40.7008 17.3781 38.3963 22.6062C36.5294 21.0148 34.1068 20.054 31.4595 20.054C25.5565 20.054 20.7712 24.8309 20.7712 30.7235C20.7712 31.0516 20.7861 31.3763 20.8151 31.6969C17.9759 33.0699 16.0209 35.9508 16.0209 39.2826C16.0209 43.9449 19.8491 47.7244 24.5715 47.7244H64.9494C69.6718 47.7244 73.5 43.9449 73.5 39.2826C73.5 35.27 70.6644 31.9113 66.8637 31.0531Z" fill="url(#paint2_linear_5202_204)"/>
</g>
<g filter="url(#filter5_i_5202_204)">
<path d="M28.4595 51.9585C25.6662 55.6228 21.7555 62.9513 28.4595 62.9513C35.1636 62.9513 31.2529 55.6228 28.4595 51.9585Z" fill="#00BCFF"/>
</g>
<g filter="url(#filter6_i_5202_204)">
<path d="M44.1634 57.3428C41.3701 61.007 37.4594 68.3356 44.1634 68.3356C50.8675 68.3356 46.9568 61.007 44.1634 57.3428Z" fill="#00BCFF"/>
</g>
<g filter="url(#filter7_i_5202_204)">
<path d="M58.7458 51.9585C55.9524 55.6228 52.0417 62.9513 58.7458 62.9513C65.4498 62.9513 61.5391 55.6228 58.7458 51.9585Z" fill="#00BCFF"/>
</g>
<g opacity="0.7" filter="url(#filter8_f_5202_204)">
<rect x="17.8032" y="57.7251" width="53.8422" height="7.85199" rx="3.92599" fill="#00BCFF"/>
</g>
<defs>
<filter id="filter0_b_5202_204" x="15.3037" y="-2.20963" width="36.0812" height="23.7689" filterUnits="userSpaceOnUse" color-interpolation-filters="sRGB">
<feFlood flood-opacity="0" result="BackgroundImageFix"/>
<feGaussianBlur in="BackgroundImageFix" stdDeviation="1.44539"/>
<feComposite in2="SourceAlpha" operator="in" result="effect1_backgroundBlur_5202_204"/>
<feBlend mode="normal" in="SourceGraphic" in2="effect1_backgroundBlur_5202_204" result="shape"/>
</filter>
<filter id="filter1_i_5202_204" x="18.1945" y="0.681152" width="30.2997" height="19.058" filterUnits="userSpaceOnUse" color-interpolation-filters="sRGB">
<feFlood flood-opacity="0" result="BackgroundImageFix"/>
<feBlend mode="normal" in="SourceGraphic" in2="BackgroundImageFix" result="shape"/>
<feColorMatrix in="SourceAlpha" type="matrix" values="0 0 0 0 0 0 0 0 0 0 0 0 0 0 0 0 0 0 127 0" result="hardAlpha"/>
<feOffset dy="1.17773"/>
<feGaussianBlur stdDeviation="0.53533"/>
<feComposite in2="hardAlpha" operator="arithmetic" k2="-1" k3="1"/>
<feColorMatrix type="matrix" values="0 0 0 0 1 0 0 0 0 1 0 0 0 0 1 0 0 0 1 0"/>
<feBlend mode="normal" in2="shape" result="effect1_innerShadow_5202_204"/>
</filter>
<filter id="filter2_b_5202_204" x="8.04836" y="18.792" width="18.1187" height="11.9355" filterUnits="userSpaceOnUse" color-interpolation-filters="sRGB">
<feFlood flood-opacity="0" result="BackgroundImageFix"/>
<feGaussianBlur in="BackgroundImageFix" stdDeviation="0.725822"/>
<feComposite in2="SourceAlpha" operator="in" result="effect1_backgroundBlur_5202_204"/>
<feBlend mode="normal" in="SourceGraphic" in2="effect1_backgroundBlur_5202_204" result="shape"/>
</filter>
<filter id="filter3_i_5202_204" x="9.5" y="20.2437" width="15.2154" height="9.56987" filterUnits="userSpaceOnUse" color-interpolation-filters="sRGB">
<feFlood flood-opacity="0" result="BackgroundImageFix"/>
<feBlend mode="normal" in="SourceGraphic" in2="BackgroundImageFix" result="shape"/>
<feColorMatrix in="SourceAlpha" type="matrix" values="0 0 0 0 0 0 0 0 0 0 0 0 0 0 0 0 0 0 127 0" result="hardAlpha"/>
<feOffset dy="0.59141"/>
<feGaussianBlur stdDeviation="0.268823"/>
<feComposite in2="hardAlpha" operator="arithmetic" k2="-1" k3="1"/>
<feColorMatrix type="matrix" values="0 0 0 0 1 0 0 0 0 1 0 0 0 0 1 0 0 0 1 0"/>
<feBlend mode="normal" in2="shape" result="effect1_innerShadow_5202_204"/>
</filter>
<filter id="filter4_i_5202_204" x="16.0209" y="13.7227" width="57.4791" height="38.0498" filterUnits="userSpaceOnUse" color-interpolation-filters="sRGB">
<feFlood flood-opacity="0" result="BackgroundImageFix"/>
<feBlend mode="normal" in="SourceGraphic" in2="BackgroundImageFix" result="shape"/>
<feColorMatrix in="SourceAlpha" type="matrix" values="0 0 0 0 0 0 0 0 0 0 0 0 0 0 0 0 0 0 127 0" result="hardAlpha"/>
<feOffset dy="4.45261"/>
<feGaussianBlur stdDeviation="2.02391"/>
<feComposite in2="hardAlpha" operator="arithmetic" k2="-1" k3="1"/>
<feColorMatrix type="matrix" values="0 0 0 0 1 0 0 0 0 1 0 0 0 0 1 0 0 0 1 0"/>
<feBlend mode="normal" in2="shape" result="effect1_innerShadow_5202_204"/>
</filter>
<filter id="filter5_i_5202_204" x="24.7579" y="51.9585" width="7.40332" height="11.6657" filterUnits="userSpaceOnUse" color-interpolation-filters="sRGB">
<feFlood flood-opacity="0" result="BackgroundImageFix"/>
<feBlend mode="normal" in="SourceGraphic" in2="BackgroundImageFix" result="shape"/>
<feColorMatrix in="SourceAlpha" type="matrix" values="0 0 0 0 0 0 0 0 0 0 0 0 0 0 0 0 0 0 127 0" result="hardAlpha"/>
<feOffset dy="2.01908"/>
<feGaussianBlur stdDeviation="0.336514"/>
<feComposite in2="hardAlpha" operator="arithmetic" k2="-1" k3="1"/>
<feColorMatrix type="matrix" values="0 0 0 0 1 0 0 0 0 1 0 0 0 0 1 0 0 0 0.21 0"/>
<feBlend mode="normal" in2="shape" result="effect1_innerShadow_5202_204"/>
</filter>
<filter id="filter6_i_5202_204" x="40.4618" y="57.3428" width="7.40332" height="11.6657" filterUnits="userSpaceOnUse" color-interpolation-filters="sRGB">
<feFlood flood-opacity="0" result="BackgroundImageFix"/>
<feBlend mode="normal" in="SourceGraphic" in2="BackgroundImageFix" result="shape"/>
<feColorMatrix in="SourceAlpha" type="matrix" values="0 0 0 0 0 0 0 0 0 0 0 0 0 0 0 0 0 0 127 0" result="hardAlpha"/>
<feOffset dy="2.01908"/>
<feGaussianBlur stdDeviation="0.336514"/>
<feComposite in2="hardAlpha" operator="arithmetic" k2="-1" k3="1"/>
<feColorMatrix type="matrix" values="0 0 0 0 1 0 0 0 0 1 0 0 0 0 1 0 0 0 0.21 0"/>
<feBlend mode="normal" in2="shape" result="effect1_innerShadow_5202_204"/>
</filter>
<filter id="filter7_i_5202_204" x="55.0441" y="51.9585" width="7.40332" height="11.6657" filterUnits="userSpaceOnUse" color-interpolation-filters="sRGB">
<feFlood flood-opacity="0" result="BackgroundImageFix"/>
<feBlend mode="normal" in="SourceGraphic" in2="BackgroundImageFix" result="shape"/>
<feColorMatrix in="SourceAlpha" type="matrix" values="0 0 0 0 0 0 0 0 0 0 0 0 0 0 0 0 0 0 127 0" result="hardAlpha"/>
<feOffset dy="2.01908"/>
<feGaussianBlur stdDeviation="0.336514"/>
<feComposite in2="hardAlpha" operator="arithmetic" k2="-1" k3="1"/>
<feColorMatrix type="matrix" values="0 0 0 0 1 0 0 0 0 1 0 0 0 0 1 0 0 0 0.21 0"/>
<feBlend mode="normal" in2="shape" result="effect1_innerShadow_5202_204"/>
</filter>
<filter id="filter8_f_5202_204" x="0.30451" y="40.2264" width="88.8396" height="42.8495" filterUnits="userSpaceOnUse" color-interpolation-filters="sRGB">
<feFlood flood-opacity="0" result="BackgroundImageFix"/>
<feBlend mode="normal" in="SourceGraphic" in2="BackgroundImageFix" result="shape"/>
<feGaussianBlur stdDeviation="8.74936" result="effect1_foregroundBlur_5202_204"/>
</filter>
<linearGradient id="paint0_linear_5202_204" x1="20.1217" y1="17.0622" x2="50.6891" y2="-5.79634" gradientUnits="userSpaceOnUse">
<stop stop-color="white"/>
<stop offset="1" stop-color="white" stop-opacity="0.58"/>
</linearGradient>
<linearGradient id="paint1_linear_5202_204" x1="10.4678" y1="28.4696" x2="25.8176" y2="16.9909" gradientUnits="userSpaceOnUse">
<stop stop-color="white"/>
<stop offset="1" stop-color="white" stop-opacity="0.58"/>
</linearGradient>
<linearGradient id="paint2_linear_5202_204" x1="19.6768" y1="44.6885" x2="77.5168" y2="1.28227" gradientUnits="userSpaceOnUse">
<stop stop-color="white"/>
<stop offset="1" stop-color="white" stop-opacity="0.58"/>
</linearGradient>
</defs>
</svg>
