<svg width="80" height="86" viewBox="0 0 80 86" fill="none" xmlns="http://www.w3.org/2000/svg">
<g filter="url(#filter0_f_5202_259)">
<path d="M37.6875 67.4469V60.7085L34.1207 62.825L32.375 61.7264V59.3581L37.6875 56.1855V51.757L33.4375 54.3612V49.6692L29.1875 51.894V58.2584L27.4312 59.5653L26 58.3848V54.1221L20.0776 57.4392L17.5 56.3778V53.6907L23.5403 50.3226L19.625 48.3867V45.9217L21.8807 44.7243L27.4206 47.984L31.2583 45.7698L31.1712 45.7007L27.2771 43.445L31.0681 41.0778L27.2676 38.8646L21.7288 42.1073L19.625 41.0778V38.6266L23.3884 36.525L17.5 33.2812V30.5941L19.9661 29.4105L26 32.8073V28.4765L27.5778 27.2791L29.6423 28.5328L29.5827 35.0194L33.4853 37.274L33.5204 32.6936L37.6875 34.9238V30.4963L32.375 27.3216V24.9692L34.1207 23.8536L37.6875 25.9701V19.2466L39.8061 17.8398L41.9375 19.2466V25.9701L46.0876 23.8122L48.3125 25.1073V27.2238L41.9375 30.4963V34.9238L46.1875 32.5151V37.3325L50.4375 35.1182V28.1865L51.9834 27.2663L53.625 28.1854V32.6128L59.8321 29.3403L62.125 30.6345V33.1409L56.2866 36.509L60 38.5852V40.98L58.0556 42.0383L52.3957 38.6829L48.4868 41.1755L52.2576 43.5428L48.3699 45.7974L52.3776 47.9139L58.1034 44.7413L60 46.0333V48.3177L56.4725 50.3226L62.125 53.6907V56.3363L59.4454 57.4382L53.625 54.2634V58.4656L52.01 59.5802L50.4375 58.4656V52.0885L46.1875 49.7372V54.1657L41.9375 51.7559V56.1844L47.25 59.357V61.8635L45.5001 62.824L41.9375 60.7096V67.448L39.8061 68.8398L37.6875 67.4469ZM36.1299 43.4376L38.1338 46.5273H41.8674L43.5812 43.4376L41.7707 40.1523H38.0371L36.1299 43.4376Z" fill="url(#paint0_linear_5202_259)"/>
</g>
<path d="M37.5 66.5288V60.1868L34.143 62.1788L32.5 61.1448V58.9158L37.5 55.9298V51.7618L33.5 54.2128V49.7968L29.5 51.8908V57.8808L27.847 59.1108L26.5 57.9998V53.9878L20.926 57.1098L18.5 56.1108V53.5818L24.185 50.4118L20.5 48.5898V46.2698L22.623 45.1428L27.837 48.2108L31.449 46.1268L31.367 46.0618L27.702 43.9388L31.27 41.7108L27.693 39.6278L22.48 42.6798L20.5 41.7108V39.4038L24.042 37.4258L18.5 34.3728V31.8438L20.821 30.7298L26.5 33.9268V29.8508L27.985 28.7238L29.928 29.9038L29.872 36.0088L33.545 38.1308L33.578 33.8198L37.5 35.9188V31.7518L32.5 28.7638V26.5498L34.143 25.4998L37.5 27.4918V21.1638L39.494 19.8398L41.5 21.1638V27.4918L45.406 25.4608L47.5 26.6798V28.6718L41.5 31.7518V35.9188L45.5 33.6518V38.1858L49.5 36.1018V29.5778L50.955 28.7118L52.5 29.5768V33.7438L58.342 30.6638L60.5 31.8818V34.2408L55.005 37.4108L58.5 39.3648V41.6188L56.67 42.6148L51.343 39.4568L47.664 41.8028L51.213 44.0308L47.554 46.1528L51.326 48.1448L56.715 45.1588L58.5 46.3748V48.5248L55.18 50.4118L60.5 53.5818V56.0718L57.978 57.1088L52.5 54.1208V58.0758L50.98 59.1248L49.5 58.0758V52.0738L45.5 49.8608V54.0288L41.5 51.7608V55.9288L46.5 58.9148V61.2738L44.853 62.1778L41.5 60.1878V66.5298L39.494 67.8398L37.5 66.5288ZM36.034 43.9318L37.92 46.8398H41.434L43.047 43.9318L41.343 40.8398H37.829L36.034 43.9318Z" fill="url(#paint1_linear_5202_259)"/>
<defs>
<filter id="filter0_f_5202_259" x="0.5" y="0.839844" width="78.625" height="85" filterUnits="userSpaceOnUse" color-interpolation-filters="sRGB">
<feFlood flood-opacity="0" result="BackgroundImageFix"/>
<feBlend mode="normal" in="SourceGraphic" in2="BackgroundImageFix" result="shape"/>
<feGaussianBlur stdDeviation="8.5" result="effect1_foregroundBlur_5202_259"/>
</filter>
<linearGradient id="paint0_linear_5202_259" x1="17.5" y1="17.8398" x2="61.5937" y2="69.9023" gradientUnits="userSpaceOnUse">
<stop stop-color="#FAFAFA"/>
<stop offset="1" stop-color="#F0F0F0"/>
</linearGradient>
<linearGradient id="paint1_linear_5202_259" x1="18.5" y1="19.8398" x2="60" y2="68.8398" gradientUnits="userSpaceOnUse">
<stop stop-color="#FAFAFA"/>
<stop offset="1" stop-color="#F0F0F0"/>
</linearGradient>
</defs>
</svg>
