<svg width="80" height="86" viewBox="0 0 80 86" fill="none" xmlns="http://www.w3.org/2000/svg">
<g filter="url(#filter0_f_5202_254)">
<path d="M38.0625 67.4469V60.7085L34.4957 62.825L32.75 61.7264V59.3581L38.0625 56.1855V51.757L33.8125 54.3612V49.6692L29.5625 51.894V58.2584L27.8062 59.5653L26.375 58.3848V54.1221L20.4526 57.4392L17.875 56.3778V53.6907L23.9153 50.3226L20 48.3867V45.9217L22.2557 44.7243L27.7956 47.984L31.6333 45.7698L31.5462 45.7007L27.6521 43.445L31.4431 41.0778L27.6426 38.8646L22.1038 42.1073L20 41.0778V38.6266L23.7634 36.525L17.875 33.2812V30.5941L20.3411 29.4105L26.375 32.8073V28.4765L27.9528 27.2791L30.0173 28.5328L29.9577 35.0194L33.8603 37.274L33.8954 32.6936L38.0625 34.9238V30.4963L32.75 27.3216V24.9692L34.4957 23.8536L38.0625 25.9701V19.2466L40.1811 17.8398L42.3125 19.2466V25.9701L46.4626 23.8122L48.6875 25.1073V27.2238L42.3125 30.4963V34.9238L46.5625 32.5151V37.3325L50.8125 35.1182V28.1865L52.3584 27.2663L54 28.1854V32.6128L60.2071 29.3403L62.5 30.6345V33.1409L56.6616 36.509L60.375 38.5852V40.98L58.4306 42.0383L52.7707 38.6829L48.8618 41.1755L52.6326 43.5428L48.7449 45.7974L52.7526 47.9139L58.4784 44.7413L60.375 46.0333V48.3177L56.8475 50.3226L62.5 53.6907V56.3363L59.8204 57.4382L54 54.2634V58.4656L52.385 59.5802L50.8125 58.4656V52.0885L46.5625 49.7372V54.1657L42.3125 51.7559V56.1844L47.625 59.357V61.8635L45.8751 62.824L42.3125 60.7096V67.448L40.1811 68.8398L38.0625 67.4469ZM36.5049 43.4376L38.5088 46.5273H42.2424L43.9562 43.4376L42.1457 40.1523H38.4121L36.5049 43.4376Z" fill="url(#paint0_linear_5202_254)"/>
</g>
<path d="M37.875 66.5288V60.1868L34.518 62.1788L32.875 61.1448V58.9158L37.875 55.9298V51.7618L33.875 54.2128V49.7968L29.875 51.8908V57.8808L28.222 59.1108L26.875 57.9998V53.9878L21.301 57.1098L18.875 56.1108V53.5818L24.56 50.4118L20.875 48.5898V46.2698L22.998 45.1428L28.212 48.2108L31.824 46.1268L31.742 46.0618L28.077 43.9388L31.645 41.7108L28.068 39.6278L22.855 42.6798L20.875 41.7108V39.4038L24.417 37.4258L18.875 34.3728V31.8438L21.196 30.7298L26.875 33.9268V29.8508L28.36 28.7238L30.303 29.9038L30.247 36.0088L33.92 38.1308L33.953 33.8198L37.875 35.9188V31.7518L32.875 28.7638V26.5498L34.518 25.4998L37.875 27.4918V21.1638L39.869 19.8398L41.875 21.1638V27.4918L45.781 25.4608L47.875 26.6798V28.6718L41.875 31.7518V35.9188L45.875 33.6518V38.1858L49.875 36.1018V29.5778L51.33 28.7118L52.875 29.5768V33.7438L58.717 30.6638L60.875 31.8818V34.2408L55.38 37.4108L58.875 39.3648V41.6188L57.045 42.6148L51.718 39.4568L48.039 41.8028L51.588 44.0308L47.929 46.1528L51.701 48.1448L57.09 45.1588L58.875 46.3748V48.5248L55.555 50.4118L60.875 53.5818V56.0718L58.353 57.1088L52.875 54.1208V58.0758L51.355 59.1248L49.875 58.0758V52.0738L45.875 49.8608V54.0288L41.875 51.7608V55.9288L46.875 58.9148V61.2738L45.228 62.1778L41.875 60.1878V66.5298L39.869 67.8398L37.875 66.5288ZM36.409 43.9318L38.295 46.8398H41.809L43.422 43.9318L41.718 40.8398H38.204L36.409 43.9318Z" fill="url(#paint1_linear_5202_254)"/>
<defs>
<filter id="filter0_f_5202_254" x="0.875" y="0.839844" width="78.625" height="85" filterUnits="userSpaceOnUse" color-interpolation-filters="sRGB">
<feFlood flood-opacity="0" result="BackgroundImageFix"/>
<feBlend mode="normal" in="SourceGraphic" in2="BackgroundImageFix" result="shape"/>
<feGaussianBlur stdDeviation="8.5" result="effect1_foregroundBlur_5202_254"/>
</filter>
<linearGradient id="paint0_linear_5202_254" x1="17.875" y1="17.8398" x2="61.9687" y2="69.9023" gradientUnits="userSpaceOnUse">
<stop stop-color="#FAFAFA"/>
<stop offset="1" stop-color="#F0F0F0"/>
</linearGradient>
<linearGradient id="paint1_linear_5202_254" x1="18.875" y1="19.8398" x2="60.375" y2="68.8398" gradientUnits="userSpaceOnUse">
<stop stop-color="#FAFAFA"/>
<stop offset="1" stop-color="#F0F0F0"/>
</linearGradient>
</defs>
</svg>
