<svg width="73" height="89" viewBox="0 0 73 89" fill="none" xmlns="http://www.w3.org/2000/svg">
<g filter="url(#filter0_b_5201_81)">
<g filter="url(#filter1_i_5201_81)">
<path d="M39.9959 9.77191C40.0733 9.33249 40.1137 8.88046 40.1137 8.41908C40.1137 4.10293 36.5821 0.604004 32.2257 0.604004C28.9871 0.604004 26.2044 2.53775 24.9896 5.30342C24.0054 4.46159 22.7284 3.95332 21.3329 3.95332C18.2212 3.95332 15.6986 6.48033 15.6986 9.59755C15.6986 9.77113 15.7065 9.94288 15.7218 10.1125C14.2251 10.8388 13.1945 12.3628 13.1945 14.1253C13.1945 16.5917 15.2126 18.5911 17.7019 18.5911H38.9868C41.4762 18.5911 43.4942 16.5917 43.4942 14.1253C43.4942 12.0027 41.9994 10.2259 39.9959 9.77191Z" fill="url(#paint0_linear_5201_81)"/>
</g>
</g>
<g filter="url(#filter2_b_5201_81)">
<g filter="url(#filter3_i_5201_81)">
<path d="M17.9587 24.7703C17.9975 24.5496 18.0178 24.3226 18.0178 24.0909C18.0178 21.9235 16.2444 20.1665 14.0568 20.1665C12.4305 20.1665 11.0331 21.1376 10.4231 22.5264C9.92886 22.1036 9.28758 21.8484 8.58679 21.8484C7.02421 21.8484 5.75749 23.1174 5.75749 24.6827C5.75749 24.7699 5.76141 24.8561 5.7691 24.9413C5.01753 25.306 4.50002 26.0713 4.50002 26.9564C4.50002 28.1949 5.5134 29.199 6.76346 29.199H17.4519C18.702 29.199 19.7154 28.1949 19.7154 26.9564C19.7154 25.8905 18.9648 24.9983 17.9587 24.7703Z" fill="url(#paint1_linear_5201_81)"/>
</g>
</g>
<g filter="url(#filter4_i_5201_81)">
<path d="M61.8637 30.976C62.0105 30.1453 62.087 29.2908 62.087 28.4187C62.087 20.2597 55.3876 13.6455 47.1235 13.6455C40.9798 13.6455 35.7008 17.3009 33.3963 22.529C31.5294 20.9377 29.1068 19.9769 26.4595 19.9769C20.5565 19.9769 15.7712 24.7538 15.7712 30.6464C15.7712 30.9745 15.7861 31.2992 15.8151 31.6197C12.9759 32.9927 11.0209 35.8737 11.0209 39.2054C11.0209 43.8677 14.8491 47.6472 19.5715 47.6472H59.9494C64.6718 47.6472 68.5 43.8677 68.5 39.2054C68.5 35.1929 65.6644 31.8342 61.8637 30.976Z" fill="url(#paint2_linear_5201_81)"/>
</g>
<g filter="url(#filter5_f_5201_81)">
<path d="M20.5468 50.0929L35.2765 29.3374H52.6844L37.2851 44.0671H52.6844L25.2335 68.8398L37.2851 50.0929H20.5468Z" fill="#D9D9D9"/>
<path d="M20.5468 50.0929L35.2765 29.3374H52.6844L37.2851 44.0671H52.6844L25.2335 68.8398L37.2851 50.0929H20.5468Z" fill="#FFEF9A"/>
</g>
<g filter="url(#filter6_i_5201_81)">
<path d="M22.9052 48.7939L35.8761 30.5166H51.2054L37.6449 43.4876H51.2054L27.0323 65.3023L37.6449 48.7939H22.9052Z" fill="#D9D9D9"/>
<path d="M22.9052 48.7939L35.8761 30.5166H51.2054L37.6449 43.4876H51.2054L27.0323 65.3023L37.6449 48.7939H22.9052Z" fill="url(#paint3_linear_5201_81)"/>
</g>
<defs>
<filter id="filter0_b_5201_81" x="10.3037" y="-2.28678" width="36.0813" height="23.7689" filterUnits="userSpaceOnUse" color-interpolation-filters="sRGB">
<feFlood flood-opacity="0" result="BackgroundImageFix"/>
<feGaussianBlur in="BackgroundImageFix" stdDeviation="1.44539"/>
<feComposite in2="SourceAlpha" operator="in" result="effect1_backgroundBlur_5201_81"/>
<feBlend mode="normal" in="SourceGraphic" in2="effect1_backgroundBlur_5201_81" result="shape"/>
</filter>
<filter id="filter1_i_5201_81" x="13.1946" y="0.604004" width="30.2997" height="19.058" filterUnits="userSpaceOnUse" color-interpolation-filters="sRGB">
<feFlood flood-opacity="0" result="BackgroundImageFix"/>
<feBlend mode="normal" in="SourceGraphic" in2="BackgroundImageFix" result="shape"/>
<feColorMatrix in="SourceAlpha" type="matrix" values="0 0 0 0 0 0 0 0 0 0 0 0 0 0 0 0 0 0 127 0" result="hardAlpha"/>
<feOffset dy="1.17773"/>
<feGaussianBlur stdDeviation="0.53533"/>
<feComposite in2="hardAlpha" operator="arithmetic" k2="-1" k3="1"/>
<feColorMatrix type="matrix" values="0 0 0 0 1 0 0 0 0 1 0 0 0 0 1 0 0 0 1 0"/>
<feBlend mode="normal" in2="shape" result="effect1_innerShadow_5201_81"/>
</filter>
<filter id="filter2_b_5201_81" x="3.04836" y="18.7149" width="18.1187" height="11.9355" filterUnits="userSpaceOnUse" color-interpolation-filters="sRGB">
<feFlood flood-opacity="0" result="BackgroundImageFix"/>
<feGaussianBlur in="BackgroundImageFix" stdDeviation="0.725822"/>
<feComposite in2="SourceAlpha" operator="in" result="effect1_backgroundBlur_5201_81"/>
<feBlend mode="normal" in="SourceGraphic" in2="effect1_backgroundBlur_5201_81" result="shape"/>
</filter>
<filter id="filter3_i_5201_81" x="4.50006" y="20.1665" width="15.2154" height="9.56987" filterUnits="userSpaceOnUse" color-interpolation-filters="sRGB">
<feFlood flood-opacity="0" result="BackgroundImageFix"/>
<feBlend mode="normal" in="SourceGraphic" in2="BackgroundImageFix" result="shape"/>
<feColorMatrix in="SourceAlpha" type="matrix" values="0 0 0 0 0 0 0 0 0 0 0 0 0 0 0 0 0 0 127 0" result="hardAlpha"/>
<feOffset dy="0.59141"/>
<feGaussianBlur stdDeviation="0.268823"/>
<feComposite in2="hardAlpha" operator="arithmetic" k2="-1" k3="1"/>
<feColorMatrix type="matrix" values="0 0 0 0 1 0 0 0 0 1 0 0 0 0 1 0 0 0 1 0"/>
<feBlend mode="normal" in2="shape" result="effect1_innerShadow_5201_81"/>
</filter>
<filter id="filter4_i_5201_81" x="11.0209" y="13.6455" width="57.4791" height="38.0498" filterUnits="userSpaceOnUse" color-interpolation-filters="sRGB">
<feFlood flood-opacity="0" result="BackgroundImageFix"/>
<feBlend mode="normal" in="SourceGraphic" in2="BackgroundImageFix" result="shape"/>
<feColorMatrix in="SourceAlpha" type="matrix" values="0 0 0 0 0 0 0 0 0 0 0 0 0 0 0 0 0 0 127 0" result="hardAlpha"/>
<feOffset dy="4.45261"/>
<feGaussianBlur stdDeviation="2.02391"/>
<feComposite in2="hardAlpha" operator="arithmetic" k2="-1" k3="1"/>
<feColorMatrix type="matrix" values="0 0 0 0 1 0 0 0 0 1 0 0 0 0 1 0 0 0 1 0"/>
<feBlend mode="normal" in2="shape" result="effect1_innerShadow_5201_81"/>
</filter>
<filter id="filter5_f_5201_81" x="0.50074" y="9.29139" width="72.2297" height="79.5945" filterUnits="userSpaceOnUse" color-interpolation-filters="sRGB">
<feFlood flood-opacity="0" result="BackgroundImageFix"/>
<feBlend mode="normal" in="SourceGraphic" in2="BackgroundImageFix" result="shape"/>
<feGaussianBlur stdDeviation="10.023" result="effect1_foregroundBlur_5201_81"/>
</filter>
<filter id="filter6_i_5201_81" x="22.9051" y="30.5166" width="28.3002" height="35.9648" filterUnits="userSpaceOnUse" color-interpolation-filters="sRGB">
<feFlood flood-opacity="0" result="BackgroundImageFix"/>
<feBlend mode="normal" in="SourceGraphic" in2="BackgroundImageFix" result="shape"/>
<feColorMatrix in="SourceAlpha" type="matrix" values="0 0 0 0 0 0 0 0 0 0 0 0 0 0 0 0 0 0 127 0" result="hardAlpha"/>
<feOffset dy="1.17918"/>
<feGaussianBlur stdDeviation="2.35835"/>
<feComposite in2="hardAlpha" operator="arithmetic" k2="-1" k3="1"/>
<feColorMatrix type="matrix" values="0 0 0 0 1 0 0 0 0 1 0 0 0 0 1 0 0 0 0.81 0"/>
<feBlend mode="normal" in2="shape" result="effect1_innerShadow_5201_81"/>
</filter>
<linearGradient id="paint0_linear_5201_81" x1="15.1217" y1="16.9851" x2="45.6891" y2="-5.87349" gradientUnits="userSpaceOnUse">
<stop stop-color="white"/>
<stop offset="1" stop-color="white" stop-opacity="0.58"/>
</linearGradient>
<linearGradient id="paint1_linear_5201_81" x1="5.46778" y1="28.3925" x2="20.8176" y2="16.9137" gradientUnits="userSpaceOnUse">
<stop stop-color="white"/>
<stop offset="1" stop-color="white" stop-opacity="0.58"/>
</linearGradient>
<linearGradient id="paint2_linear_5201_81" x1="14.6768" y1="44.6114" x2="72.5168" y2="1.20513" gradientUnits="userSpaceOnUse">
<stop stop-color="white"/>
<stop offset="1" stop-color="white" stop-opacity="0.58"/>
</linearGradient>
<linearGradient id="paint3_linear_5201_81" x1="34.9059" y1="57.3765" x2="50.5369" y2="35.0732" gradientUnits="userSpaceOnUse">
<stop stop-color="#FF9900"/>
<stop offset="1" stop-color="#FFEE94"/>
</linearGradient>
</defs>
</svg>
